<?xml version="1.0" encoding="utf-8"?>
<!-- Generator: Adobe Illustrator 27.0.0, SVG Export Plug-In . SVG Version: 6.00 Build 0)  -->
<svg version="1.1" id="Layer_1" xmlns="http://www.w3.org/2000/svg" xmlns:xlink="http://www.w3.org/1999/xlink" x="0px" y="0px"
	 viewBox="0 0 40 40" style="enable-background:new 0 0 40 40;" xml:space="preserve">
<style type="text/css">
	.st0{fill:#FFFFFF;}
</style>
<path class="st0" d="M40,20c0,9.9-7.2,18.1-16.7,19.8l-0.1-0.1c0.1,0,0.1,0,0.2,0V25.6h4.4l0.9-5.6h-5.3v-3.9c0-1.6,0.6-2.8,3-2.8
	H29V8.2c-1.4-0.2-3-0.4-4.4-0.4c-4.6,0-7.8,2.8-7.8,7.8V20h-5v5.6h5v14.1c0,0,0,0,0,0l-0.1,0.1C7.2,38.1,0,29.9,0,20C0,9,9,0,20,0
	c5.5,0,10.5,2.2,14.1,5.9C37.8,9.5,40,14.5,40,20z"/>
</svg>
